<svg id="Pagina_inicial_Escritorio" data-name="Pagina inicial Escritorio" xmlns="http://www.w3.org/2000/svg" viewBox="0 0 200 48.2"><defs><style>.cls-1{fill:#ed4c03;}.cls-2{fill:#ad0c14;}</style></defs><title>aliexpress</title><path class="cls-1" d="M1711.9,3490a9.6,9.6,0,0,0,5.4-6.3,6.2,6.2,0,0,1-.1,12.3A8.4,8.4,0,0,0,1711.9,3490Z" transform="translate(-1673.9 -3483.8)"/><path class="cls-1" d="M1673.9,3519.1c5-10,8.2-20.8,12.5-31.2h4.3l12.3,32h-4.1l-2.9-7.7c-4.4.1-8.8-.2-13.2,0.1-2.8.5-2.9,4-4,6.1s-3.3,1-4.9,1.2v-0.6m8.9-11.1h11.4c-1.8-5-3.7-10-5.7-14.9Z" transform="translate(-1673.9 -3483.8)"/><path class="cls-1" d="M1705.3,3488h4.1q0,16,0,32h-4.1v-32Z" transform="translate(-1673.9 -3483.8)"/><path class="cls-2" d="M1725.1,3488H1744v4.1h-14.8v9.8h13.1v3.9h-13.1v10h15.9v4.1h-20Q1725.1,3504,1725.1,3488Z" transform="translate(-1673.9 -3483.8)"/><path class="cls-2" d="M1771.6,3507.2a12.1,12.1,0,0,1,24,0,12.2,12.2,0,0,1-10.3,13.3c-3.7.7-7-1.4-9.9-3.3,0.1,4.9.1,9.9,0.1,14.8h-4c0.1-8.2-.3-16.5.2-24.7m8-5.9c-5.4,2.8-5.4,11.6.1,14.4s12.3-1.4,11.9-7.3S1784.7,3497.9,1779.7,3501.3Z" transform="translate(-1673.9 -3483.8)"/><path class="cls-2" d="M1812.9,3503.2c2.9-6.7,12.8-9.2,18.1-3.9,3.3,2.7,3.5,7.2,3.5,11.1-6.3,0-12.7-.1-19.1.1,1.7,2.5,3.3,5.5,6.5,6s5.7-1.1,8.3-2.1l3,2c-3.4,3-8,5.3-12.6,3.8-7.1-1.7-11.2-10.4-7.8-16.9m2.5,3.3q7.7,0.3,15.5,0c-1.4-2.6-3-5.9-6.4-6.1S1817.1,3503.2,1815.3,3506.5Z" transform="translate(-1673.9 -3483.8)"/><path class="cls-2" d="M1837.4,3505.6c-2.1-4.7,2.5-9.1,7-9.1s6.6,1.6,9.2,3.8l-2.9,2c-3.3-3-9-3.4-10.8,1.4,3.4,2.3,7.6,2.7,11.3,4.5s3.7,8.5-.1,10.7-11.1,1.4-15.3-2.1l2.9-2.4c2.1,1.3,4.2,3.1,6.8,2.7s5.1-2.1,4.3-4.9C1846.3,3508.8,1840,3510.2,1837.4,3505.6Z" transform="translate(-1673.9 -3483.8)"/><path class="cls-2" d="M1856.9,3504.7c-1.3-5.1,4.3-8.7,8.8-8.3s5.6,2.1,7.8,4l-3.1,1.7c-2.4-1.8-5.8-3.4-8.5-1.4a2.5,2.5,0,0,0-.8,3.7c3.5,2.3,8.4,1.8,11.4,4.9s1.1,9.1-3.1,10.3-9.7.1-13.6-2.7l2.7-2.8c2.5,1.6,5.4,3.7,8.6,2.5s3.9-3.4,2-5.3C1865.1,3509,1858.6,3509.8,1856.9,3504.7Z" transform="translate(-1673.9 -3483.8)"/><path class="cls-1" d="M1715.1,3497.1h4.1V3520h-4.1v-22.8Z" transform="translate(-1673.9 -3483.8)"/><path class="cls-2" d="M1747,3497h4.8l6.6,8.5c3.1-3.7,5.3-9.7,11.3-8.6-2.9,4-5.9,7.8-8.9,11.7,3,3.9,6,7.7,8.9,11.6-6,1.1-8.1-5-11.3-8.6-3.3,3.6-5.4,9.9-11.4,8.6,2.9-3.9,5.9-7.8,8.9-11.6Z" transform="translate(-1673.9 -3483.8)"/><path class="cls-2" d="M1798.7,3497h4.1l-0.2,2.2a28.9,28.9,0,0,1,8.4-3.2c1.4,5.8-6.2,4.6-7.5,9.1s-0.5,9.9-.8,14.8h-4Q1798.7,3508.4,1798.7,3497Z" transform="translate(-1673.9 -3483.8)"/></svg>