<svg id="Pagina_inicial_Escritorio" data-name="Pagina inicial Escritorio" xmlns="http://www.w3.org/2000/svg" viewBox="0 0 201.1 51"><defs><style>.cls-1{fill:#003087;}.cls-2{fill:#002f86;}.cls-3{fill:#009cde;}.cls-4{fill:#012069;}</style></defs><title>paypal</title><path id="path14499" class="cls-1" d="M1236.8,3483.4c-2.4-2.7-6.6-3.8-12.1-3.8h-15.9a2.3,2.3,0,0,0-2.2,1.9l-6.6,41.9a1.4,1.4,0,0,0,1.3,1.6h9.8l2.5-15.6v0.5a2.3,2.3,0,0,1,2.2-1.9h4.7c9.1,0,16.3-3.7,18.4-14.4l0.2-.9h0c0.6-4,0-6.7-2.2-9.1" transform="translate(-1200 -3479.5)"/><path id="path14519" class="cls-2" d="M1338,3503.1h-5.3a1.5,1.5,0,0,0-1.3.7l-7.3,10.7-3.1-10.3a1.5,1.5,0,0,0-1.5-1.1h-5.2a0.9,0.9,0,0,0-.9,1.2l5.8,17-5.5,7.7a0.9,0.9,0,0,0,.7,1.4h5.3a1.5,1.5,0,0,0,1.3-.7l17.5-25.3a0.9,0.9,0,0,0-.7-1.4m-35.2,10.2a5.8,5.8,0,0,1-5.9,5,4.1,4.1,0,0,1-4.3-5.1,5.9,5.9,0,0,1,5.9-5,4.4,4.4,0,0,1,3.5,1.4,4.5,4.5,0,0,1,.9,3.7m7.3-10.2h-5.2a0.9,0.9,0,0,0-.9.8l-0.2,1.5-0.4-.5c-1.1-1.6-3.7-2.2-6.2-2.2a12.1,12.1,0,0,0-11.7,10.5,9.9,9.9,0,0,0,2,8.1,8.2,8.2,0,0,0,6.6,2.7,10,10,0,0,0,7.3-3l-0.2,1.5a0.9,0.9,0,0,0,.9,1.1h4.7a1.5,1.5,0,0,0,1.5-1.3l2.8-17.9a0.9,0.9,0,0,0-.9-1.1m-31.5.1c-0.6,3.9-3.6,3.9-6.5,3.9h-1.7l1.2-7.3a0.9,0.9,0,0,1,.9-0.8h0.8c2,0,3.8,0,4.8,1.1a3.7,3.7,0,0,1,.5,3.1m-1.3-10.3h-10.9a1.5,1.5,0,0,0-1.5,1.3l-4.4,28.1a0.9,0.9,0,0,0,.9,1.1h5.2a1.5,1.5,0,0,0,1.5-1.3l1.2-7.6a1.5,1.5,0,0,1,1.5-1.3h3.5c7.2,0,11.4-3.5,12.5-10.4,0.5-3,0-5.4-1.4-7.1s-4.3-2.8-8-2.8" transform="translate(-1200 -3479.5)"/><path id="path14523" class="cls-3" d="M1394.3,3493.8l-4.5,28.6a0.9,0.9,0,0,0,.9,1.1h4.5a1.5,1.5,0,0,0,1.5-1.3l4.4-28.1a0.9,0.9,0,0,0-.9-1.1h-5.1a0.9,0.9,0,0,0-.9.8m-13.5,19.6a5.8,5.8,0,0,1-5.9,5,4.1,4.1,0,0,1-4.3-5.1,5.9,5.9,0,0,1,5.9-5,4.4,4.4,0,0,1,3.5,1.4,4.5,4.5,0,0,1,.9,3.7m7.3-10.2h-5.2a0.9,0.9,0,0,0-.9.8l-0.2,1.5-0.4-.5c-1.1-1.6-3.7-2.2-6.2-2.2a12.1,12.1,0,0,0-11.7,10.5,9.9,9.9,0,0,0,2,8.1,8.2,8.2,0,0,0,6.6,2.7,10,10,0,0,0,7.3-3l-0.2,1.5a0.9,0.9,0,0,0,.9,1.1h4.7a1.5,1.5,0,0,0,1.5-1.3l2.8-17.9a0.9,0.9,0,0,0-.9-1.1m-31.5.1c-0.6,3.9-3.6,3.9-6.5,3.9h-1.7l1.2-7.3a0.9,0.9,0,0,1,.9-0.8h0.8c2,0,3.8,0,4.8,1.1a3.7,3.7,0,0,1,.5,3.1m-1.3-10.3h-10.9a1.5,1.5,0,0,0-1.5,1.3l-4.4,28.1a0.9,0.9,0,0,0,.9,1.1h5.6a1.1,1.1,0,0,0,1.1-.9l1.3-8a1.5,1.5,0,0,1,1.5-1.3h3.5c7.2,0,11.4-3.5,12.5-10.4,0.5-3,0-5.4-1.4-7.1s-4.3-2.8-8-2.8" transform="translate(-1200 -3479.5)"/><path id="path14527" class="cls-1" d="M1236.8,3483.4c-2.4-2.7-6.6-3.8-12.1-3.8h-15.9a2.3,2.3,0,0,0-2.2,1.9l-6.6,41.9a1.4,1.4,0,0,0,1.3,1.6h9.8l2.5-15.6v0.5a2.3,2.3,0,0,1,2.2-1.9h4.7c9.1,0,16.3-3.7,18.4-14.4l0.2-.9h0c0.6-4,0-6.7-2.2-9.1" transform="translate(-1200 -3479.5)"/><path id="path14531" class="cls-2" d="M1216.3,3492.5a2,2,0,0,1,1.1-1.5l0.9-.2h12.4a26,26,0,0,1,4.1.3l1,0.2,1,0.3h0.5l1.7,0.7c0.6-4,0-6.7-2.2-9.1s-6.6-3.8-12.1-3.8h-15.9a2.3,2.3,0,0,0-2.2,1.9l-6.6,41.9a1.4,1.4,0,0,0,1.3,1.6h9.8l2.5-15.6,2.6-16.7h0Z" transform="translate(-1200 -3479.5)"/><path id="path14535" class="cls-3" d="M1239,3492.5h0l-0.2.9c-2.1,10.7-9.2,14.4-18.4,14.4h-4.7a2.3,2.3,0,0,0-2.2,1.9l-2.4,15.1-0.7,4.3a1.2,1.2,0,0,0,1.2,1.4h8.3a2,2,0,0,0,2-1.7v-0.4l1.6-9.9V3518a2,2,0,0,1,2-1.7h1.2c8,0,14.3-3.2,16.1-12.6,0.8-3.9.4-7.2-1.7-9.5a7.9,7.9,0,0,0-2.3-1.7" transform="translate(-1200 -3479.5)"/><path id="path14539" class="cls-4" d="M1236.8,3491.6l-1-.3-1-.2a25.8,25.8,0,0,0-4.1-.3h-12.4l-0.9.2a2,2,0,0,0-1.1,1.5l-2.6,16.7v0.5a2.3,2.3,0,0,1,2.2-1.9h4.7c9.1,0,16.3-3.7,18.4-14.4l0.2-.9-1.7-.7h-0.5" transform="translate(-1200 -3479.5)"/></svg>