<svg id="Pagina_inicial_Escritorio" data-name="Pagina inicial Escritorio" xmlns="http://www.w3.org/2000/svg" viewBox="0 0 197.3 59.2"><defs><style>.cls-1{fill:#0e8343;}.cls-2{fill:#8e8e8e;}</style></defs><title>sugarcrm</title><g id="_0e8343ff" data-name="#0e8343ff"><path class="cls-1" d="M2092.5,3475h0.4c2.2,2.3,3.3,5.2,4.2,8.2l3.9-4.5c3.6,7.4.4,16.6-5.8,21.5,5,3.3,7.2,9.1,7.8,14.9v7c-2.6-.2-5.7.2-7.7-2s-1.5-6.4-1.2-9.5c-4.4-.7-9.1-1.2-12.5-4.4s-3.4-9.2-8.3-10.7-11.2,3.5-16.6,5.6c3.9-3.7,8.8-6.1,13.8-8,2-2.9,4.9-5.9,8.7-5.6s6.5,3.6,6.4,7.2C2087.3,3488,2090.2,3481.6,2092.5,3475Z" transform="translate(-1905.7 -3475)"/></g><g id="_ffffffff" data-name="#ffffffff"><path class="cls-2" d="M1909.7,3497.8c4.4-3,10.7-2.3,14.7,1.1l-3,3c-2.2-1.6-4.9-3-7.6-1.9s-4.2,4.6-2,6.6,8.3,2.3,11.2,5.6a8.3,8.3,0,0,1-1.5,11.2,12.3,12.3,0,0,1-15.7-1.5v-0.4l2.9-2.5c2.3,2.1,5.7,3.8,8.8,2.2s4-4.5,1.9-6.5-7.7-2.3-10.6-5.1S1905.8,3500.3,1909.7,3497.8Z" transform="translate(-1905.7 -3475)"/><path class="cls-2" d="M2004.4,3497.8a13.5,13.5,0,0,1,14.7.9l-3.4,3.7c-2.7-2.5-8.9-3.2-9.8,1.3s5.6,4.2,8.5,5.8c5.9,1.8,6.4,10.6,1.6,13.9a13.1,13.1,0,0,1-16-1.6l3.5-3.5c2.2,2.2,5.6,3.7,8.6,2s2.9-4.2,1-5.8-7.7-2.3-10.5-5.2A7.9,7.9,0,0,1,2004.4,3497.8Z" transform="translate(-1905.7 -3475)"/><path class="cls-2" d="M1926.6,3505.9h3.6c0.1,4.2-.2,8.5.2,12.7s8,4,8.9-.3,0.2-8.3.4-12.4h3.6q0,9.4,0,18.8h-3.7l0.2-2.6c-3.2,4.5-11.6,4.1-12.9-1.7S1926.8,3510.7,1926.6,3505.9Z" transform="translate(-1905.7 -3475)"/><path class="cls-2" d="M1951.5,3506.2c3.6-1.7,7.8-.5,10.7,2l-0.2-2.3h3.7c-0.1,6.7.2,13.5-.1,20.2-0.4,4.4-4.2,7.5-8.4,8.1h-3.5a17.4,17.4,0,0,1-7.7-3.1l2.3-3.2c3,2.6,7.5,4.1,11.1,1.9s2.4-5.2,2.7-7.9a9.5,9.5,0,0,1-12.3,1.5c-6-3.9-5.2-14.5,1.5-17.2m2.1,3.1c-5.1,1.9-5,10.6.3,12,3.8,1.4,8.5-1.5,8.2-5.8A6.2,6.2,0,0,0,1953.5,3509.2Z" transform="translate(-1905.7 -3475)"/><path class="cls-2" d="M1969.4,3508c3.4-2.4,7.9-3.5,11.9-1.8a5.6,5.6,0,0,1,3.6,5.3c0.1,4.4-.1,8.8.2,13.3h-3.2c0-.7,0-2,0-2.6a8.4,8.4,0,0,1-10.7,2.1c-3.4-1.9-3.3-7.5,0-9.4s7.1-1.6,10.7-1.9c-0.5-1.4-.7-3.2-2.2-3.9s-5.7-.1-8,1.5a25.2,25.2,0,0,0-2.2-2.4m2.9,10.4c-0.9,3.8,4.2,4.7,6.7,3.2s2.5-3.7,2.8-5.9C1978.5,3515.9,1974.1,3515.2,1972.3,3518.4Z" transform="translate(-1905.7 -3475)"/><path class="cls-2" d="M1991.7,3508.5a8.4,8.4,0,0,1,7.4-3c0,1.3,0,2.6,0,3.9-2.6-.2-6,0.1-6.8,3.2s-0.2,8.2-.4,12.2h-3.6v-18.8h3.7Z" transform="translate(-1905.7 -3475)"/><path class="cls-2" d="M2018.6,3505.8h5l5.4,13.4,4.9-13.4h4.8c-3.3,8.2-6.3,16.6-9.7,24.7-1.6,3.9-6.4,4-9.9,3.3l0.5-4c1.7-.1,4,0.8,5.2-0.8a22.4,22.4,0,0,0,2-4.3C2023.9,3518.5,2021.3,3512.1,2018.6,3505.8Z" transform="translate(-1905.7 -3475)"/><path class="cls-2" d="M2040.4,3505.8h4.4c0,0.8-.1,2.4-0.1,3.2,2.4-5.3,11.5-4.9,12.6,1.1s0.1,9.7.3,14.5H2053c-0.2-4.3.5-8.8-.4-13s-7.1-2.4-7.4,1.2-0.1,7.9-.2,11.8h-4.6v-18.8Z" transform="translate(-1905.7 -3475)"/><path class="cls-2" d="M2062.5,3507.8a10.9,10.9,0,0,1,14.6.1l-3.4,3.5c-1.7-1.2-3.8-2.6-5.9-1.4-4.2,1.6-4.4,8.3-.2,10.2,2.2,1.2,4.5.1,6.3-1.2l3.3,3.7c-3.7,2.9-9.1,3.6-13.1,1.1S2057.9,3512,2062.5,3507.8Z" transform="translate(-1905.7 -3475)"/></g></svg>