<svg id="Pagina_inicial_Escritorio" data-name="Pagina inicial Escritorio" xmlns="http://www.w3.org/2000/svg" viewBox="0 0 186.1 45.7"><defs><style>.cls-1{fill:#7f7f7f;}.cls-2{fill:#fdbb30;}</style></defs><title>walmark</title><path class="cls-1" d="M2241,3511.4c0-4.5-1.9-8.5-8.4-8.5a15.4,15.4,0,0,0-7.4,1.8l1.1,3.6a10.9,10.9,0,0,1,5.4-1.5c3.3,0,3.8,1.9,3.8,3.1v0.3c-7.2,0-11.8,2.5-11.8,7.6a6,6,0,0,0,6.3,6,7.2,7.2,0,0,0,5.8-2.6h0.1s0.8,3.4,5.4,2.1a29,29,0,0,1-.3-4.8v-7.1h0Zm-5.4,4.8a3.5,3.5,0,0,1-3.8,3.6,2.5,2.5,0,0,1-2.7-2.6c0-2.7,3-3.5,6.4-3.5v2.5h0Zm-104.8-19.4,5.5,22.4c0.9,3.7,2.5,5,7,4.1l2.9-11.9c0.7-3,1.2-5.1,1.7-8.1h0.1a80,80,0,0,0,1.4,8.1l1.8,8.3c0.6,2.8,2.3,4.6,6.8,3.7l7-26.5h-5.7l-2.4,11.5c-0.6,3.3-1.2,5.9-1.7,9h-0.1c-0.4-3-.9-5.5-1.6-8.8l-2.5-11.7h-5.9l-2.7,11.4c-0.8,3.5-1.5,6.2-1.9,9.2h-0.1q-0.8-4.8-1.7-9.6l-2.1-10.9h-6Zm50,14.6c0-4.5-1.9-8.5-8.4-8.5a15.4,15.4,0,0,0-7.4,1.8l1.1,3.6a10.9,10.9,0,0,1,5.4-1.5c3.3,0,3.8,1.9,3.8,3.1v0.3c-7.2,0-11.7,2.5-11.7,7.6a6,6,0,0,0,6.3,6,7.2,7.2,0,0,0,5.8-2.6h0.1s0.8,3.4,5.4,2.1a29.2,29.2,0,0,1-.3-4.8v-7.1h0Zm-5.4,4.8a3.7,3.7,0,0,1-.1,1.1,3.8,3.8,0,0,1-3.6,2.5,2.5,2.5,0,0,1-2.7-2.6c0-2.7,3-3.5,6.4-3.5v2.5h0Zm13.7,1.5v-20.9h-5.4v26.5h5.4m68.4-26.5v19.5c0,2.7.5,4.6,1.6,5.7a6,6,0,0,0,4.4,1.7,12.7,12.7,0,0,0,3.9-.6V3519l-2,.2c-1.8,0-2.4-1.2-2.4-3.6v-7.5h4.7v-5.1h-4.7v-6.3h-5.3Zm-13.9,6.6v19.9h5.6v-10.2a7.7,7.7,0,0,1,.1-1.5,4.2,4.2,0,0,1,4.4-3.5h1.6v-5.2h-1.2a5.9,5.9,0,0,0-5.4,4.2h-0.2v-3.8h-4.9Zm-51.4,0v19.9h5.4v-11.7a4.6,4.6,0,0,1,.3-1.6,3.7,3.7,0,0,1,3.3-2.5c2.2,0,3.2,1.8,3.2,4.5v11.3h5.4v-11.8a5.5,5.5,0,0,1,.2-1.6,3.4,3.4,0,0,1,3.2-2.4c2.2,0,3.3,1.8,3.3,4.9v10.9h5.4v-11.7c0-6.2-3.1-8.6-6.7-8.6a7.2,7.2,0,0,0-3.9,1.1,8.4,8.4,0,0,0-2.5,2.5h-0.1a5.7,5.7,0,0,0-5.5-3.6,6.3,6.3,0,0,0-5.8,3.2h-0.1v-2.7h-5.1Z" transform="translate(-2130.8 -3487.1)"/><path class="cls-2" d="M2296.6,3502.5a2,2,0,0,0,2.1-1.3l1.1-12c0-1.2-1.4-2.2-3.1-2.2s-3.1,1-3.1,2.2l1.1,12a2,2,0,0,0,2.1,1.3h0Zm-6.5,3.7a2,2,0,0,0-.1-2.4l-9.8-6.9c-1-.6-2.5.1-3.4,1.6s-0.7,3.2.3,3.8l10.9,5.1a2,2,0,0,0,2.1-1.2h0Zm12.9,0a2,2,0,0,0,2.1,1.2l10.9-5.1c1-.6,1.2-2.3.3-3.8s-2.4-2.2-3.4-1.6l-9.8,6.9a2,2,0,0,0-.1,2.4h0Zm-6.5,11.2a2,2,0,0,1,2.1,1.3l1.1,11.9c0,1.2-1.4,2.2-3.1,2.2s-3.1-1-3.1-2.2l1.1-11.9a1.9,1.9,0,0,1,2.1-1.3h0Zm6.5-3.7a2,2,0,0,1,2.1-1.2l10.9,5.1c1,0.6,1.2,2.3.3,3.8s-2.4,2.2-3.4,1.6l-9.8-6.9a2,2,0,0,1-.1-2.4h0Zm-12.9,0a2,2,0,0,1-.1,2.4l-9.8,6.9c-1,.6-2.5-0.1-3.4-1.6s-0.7-3.2.3-3.8l10.9-5.1a2,2,0,0,1,2.1,1.2h0Z" transform="translate(-2130.8 -3487.1)"/></svg>